<svg width="14" height="14" viewBox="0 0 14 14" fill="none" xmlns="http://www.w3.org/2000/svg">
<g clip-path="url(#clip0_2317_398)">
<path d="M5.18848 13.7617L6.96897 7.11751" stroke="black" stroke-width="2" stroke-miterlimit="10"/>
<path d="M2.05029 11.9492L6.91479 7.08472" stroke="black" stroke-width="2" stroke-miterlimit="10"/>
<path d="M0.238281 8.81055L6.88249 7.03006" stroke="black" stroke-width="2" stroke-miterlimit="10"/>
<path d="M0.238281 5.18904L6.88249 6.96875" stroke="black" stroke-width="2" stroke-miterlimit="10"/>
<path d="M2.05029 2.05034L6.91479 6.91406" stroke="black" stroke-width="2" stroke-miterlimit="10"/>
<path d="M5.18848 0.2386L6.96897 6.88281" stroke="black" stroke-width="2" stroke-miterlimit="10"/>
<path d="M8.81157 0.2386L7.03186 6.88281" stroke="black" stroke-width="2" stroke-miterlimit="10"/>
<path d="M11.9501 2.05034L7.08643 6.91406" stroke="black" stroke-width="2" stroke-miterlimit="10"/>
<path d="M13.7614 5.18904L7.11719 6.96875" stroke="black" stroke-width="2" stroke-miterlimit="10"/>
<path d="M13.7614 8.81055L7.11719 7.03006" stroke="black" stroke-width="2" stroke-miterlimit="10"/>
<path d="M11.9501 11.9492L7.08643 7.08472" stroke="black" stroke-width="2" stroke-miterlimit="10"/>
<path d="M8.81157 13.7617L7.03186 7.11751" stroke="black" stroke-width="2" stroke-miterlimit="10"/>
<path d="M6.99982 6.29822C7.38723 6.29822 7.70129 6.61228 7.70129 6.9997C7.70129 7.38711 7.38723 7.70117 6.99982 7.70117C6.6124 7.70117 6.29834 7.38711 6.29834 6.9997C6.29834 6.61228 6.6124 6.29822 6.99982 6.29822Z" fill="black"/>
</g>
<defs>
<clipPath id="clip0_2317_398">
<rect width="14" height="14" fill="white" transform="matrix(1 0 0 -1 0 14)"/>
</clipPath>
</defs>
</svg>
