<svg width="14" height="14" viewBox="0 0 14 14" fill="none" xmlns="http://www.w3.org/2000/svg">
<g clip-path="url(#clip0_2317_443)">
<path d="M8.2019 0.887324C8.26079 1.07258 8.36067 1.24177 8.49394 1.382C8.62721 1.52223 8.79035 1.62979 8.97091 1.69648C9.15147 1.76318 9.34469 1.78723 9.53583 1.76683C9.72697 1.74642 9.91098 1.68209 10.0738 1.57873V1.57873C11.1117 0.918932 12.376 1.99259 11.9136 3.1423C11.8426 3.32266 11.8129 3.51698 11.8268 3.71063C11.8407 3.90428 11.8977 4.09222 11.9937 4.26032C12.0897 4.42841 12.222 4.57228 12.3808 4.68111C12.5396 4.78993 12.7207 4.86087 12.9105 4.88859V4.88859C14.124 5.05848 14.4108 6.70403 13.327 7.28383C13.1573 7.37492 13.0103 7.50403 12.8974 7.66133C12.7844 7.81864 12.7083 7.99998 12.675 8.19154C12.6417 8.3831 12.652 8.57984 12.7052 8.76675C12.7583 8.95367 12.8529 9.12584 12.9817 9.27014V9.27014C13.8031 10.1907 12.9817 11.6407 11.7799 11.377C11.5921 11.336 11.3974 11.3391 11.2109 11.386C11.0244 11.4329 10.8509 11.5223 10.7037 11.6474C10.5565 11.7725 10.4395 11.93 10.3616 12.1079C10.2837 12.2858 10.247 12.4794 10.2543 12.6738C10.2992 13.9134 8.74914 14.4853 7.99608 13.5055C7.87817 13.3518 7.72714 13.2275 7.55453 13.142C7.38192 13.0564 7.19229 13.012 7.00012 13.012C6.80795 13.012 6.61831 13.0564 6.4457 13.142C6.27309 13.2275 6.12207 13.3518 6.00416 13.5055V13.5055C5.25207 14.4853 3.70107 13.9134 3.74692 12.6738C3.75403 12.4793 3.71717 12.2858 3.63917 12.1079C3.56117 11.93 3.44407 11.7725 3.29681 11.6474C3.14955 11.5223 2.97603 11.4329 2.78946 11.386C2.6029 11.3392 2.40823 11.3361 2.2203 11.377V11.377C1.02242 11.6377 0.197165 10.1917 1.01949 9.27014C1.14826 9.12577 1.24278 8.95354 1.29586 8.76658C1.34894 8.57962 1.35916 8.38286 1.32577 8.19129C1.29237 7.99972 1.21622 7.81839 1.10313 7.66113C0.990046 7.50387 0.843001 7.37483 0.673197 7.28383V7.28383C-0.409579 6.70403 -0.123768 5.05848 1.0907 4.88859C1.28105 4.86186 1.46286 4.79148 1.62227 4.6828C1.78168 4.57413 1.91448 4.43003 2.01054 4.2615C2.10661 4.09297 2.1634 3.90445 2.17659 3.71032C2.18978 3.51619 2.15902 3.32158 2.08666 3.14131V3.14131C1.62526 1.9916 2.88947 0.917944 3.9264 1.57774C4.08957 1.68011 4.27356 1.74364 4.4645 1.76354C4.65544 1.78344 4.84835 1.75919 5.02869 1.69261C5.20903 1.62604 5.37209 1.51888 5.50558 1.37921C5.63907 1.23955 5.7395 1.07102 5.79931 0.886337V0.886337C6.17487 -0.293006 7.82537 -0.293006 8.2019 0.887324Z" fill="black"/>
</g>
<defs>
<clipPath id="clip0_2317_443">
<rect width="14" height="14" fill="white"/>
</clipPath>
</defs>
</svg>
