<svg width="14" height="14" viewBox="0 0 14 14" fill="none" xmlns="http://www.w3.org/2000/svg">
<g clip-path="url(#clip0_2317_413)">
<path d="M7.36604 0.216635L9.19372 3.55663C9.48155 4.08328 9.91452 4.51624 10.4412 4.80407L13.7812 6.63175C13.847 6.66762 13.9019 6.72057 13.9402 6.78501C13.9784 6.84946 13.9986 6.92303 13.9986 6.99798C13.9986 7.07293 13.9784 7.1465 13.9402 7.21095C13.9019 7.2754 13.847 7.32834 13.7812 7.36422L10.4412 9.19189C9.91467 9.47993 9.48176 9.91284 9.19372 10.4393L7.36604 13.7793C7.33017 13.8451 7.27723 13.9001 7.21278 13.9383C7.14833 13.9766 7.07476 13.9968 6.99981 13.9968C6.92486 13.9968 6.85129 13.9766 6.78684 13.9383C6.72239 13.9001 6.66945 13.8451 6.63358 13.7793L4.80668 10.4393C4.51836 9.91279 4.08519 9.47988 3.55846 9.19189L0.218469 7.36422C0.15287 7.32817 0.0981479 7.27516 0.0600393 7.21074C0.0219307 7.14631 0.00183105 7.07283 0.00183105 6.99798C0.00183105 6.92313 0.0219307 6.84965 0.0600393 6.78523C0.0981479 6.7208 0.15287 6.6678 0.218469 6.63175L3.55846 4.80407C4.08535 4.51629 4.51857 4.08333 4.80668 3.55663L6.63358 0.216635C6.66963 0.151035 6.72263 0.096322 6.78706 0.0582134C6.85148 0.0201049 6.92496 0 6.99981 0C7.07466 0 7.14815 0.0201049 7.21257 0.0582134C7.277 0.096322 7.32999 0.151035 7.36604 0.216635V0.216635Z" fill="black"/>
</g>
<defs>
<clipPath id="clip0_2317_413">
<rect width="14" height="14" fill="white"/>
</clipPath>
</defs>
</svg>
